<mxfile host="app.diagrams.net" modified="2021-06-09T17:20:08.249Z" agent="5.0 (Windows NT 10.0; Win64; x64) AppleWebKit/537.36 (KHTML, like Gecko) Chrome/90.0.4430.212 Safari/537.36 OPR/76.0.4017.177" etag="dophUOoWkeNoQwkLpeak" version="14.7.6" type="github">
  <diagram id="5laN6TjxJGUuAzd7cW2J" name="Page-1">
    <mxGraphModel dx="2100" dy="2093" grid="1" gridSize="10" guides="1" tooltips="1" connect="1" arrows="1" fold="1" page="1" pageScale="1" pageWidth="827" pageHeight="1169" math="0" shadow="0">
      <root>
        <mxCell id="0" />
        <mxCell id="1" parent="0" />
        <mxCell id="Wd5RXZwqYcntnL7yTHbW-1" style="edgeStyle=none;rounded=0;orthogonalLoop=1;jettySize=auto;html=1;endArrow=none;endFill=0;exitX=1;exitY=0.3333333333333333;exitDx=0;exitDy=0;exitPerimeter=0;" edge="1" parent="1" source="Wd5RXZwqYcntnL7yTHbW-3" target="Wd5RXZwqYcntnL7yTHbW-5">
          <mxGeometry relative="1" as="geometry">
            <mxPoint x="90" y="229" as="sourcePoint" />
            <Array as="points" />
          </mxGeometry>
        </mxCell>
        <mxCell id="Wd5RXZwqYcntnL7yTHbW-2" style="edgeStyle=none;rounded=0;orthogonalLoop=1;jettySize=auto;html=1;entryX=0;entryY=0.5;entryDx=0;entryDy=0;endArrow=none;endFill=0;exitX=1;exitY=0.3333333333333333;exitDx=0;exitDy=0;exitPerimeter=0;" edge="1" parent="1" source="Wd5RXZwqYcntnL7yTHbW-3" target="Wd5RXZwqYcntnL7yTHbW-6">
          <mxGeometry relative="1" as="geometry">
            <Array as="points" />
          </mxGeometry>
        </mxCell>
        <mxCell id="Wd5RXZwqYcntnL7yTHbW-3" value="Responsable" style="shape=umlActor;verticalLabelPosition=bottom;verticalAlign=top;html=1;fontSize=17;fillColor=none;" vertex="1" parent="1">
          <mxGeometry x="50" y="760" width="30" height="60" as="geometry" />
        </mxCell>
        <mxCell id="Wd5RXZwqYcntnL7yTHbW-4" value="" style="rounded=0;whiteSpace=wrap;html=1;fillColor=none;strokeWidth=3;" vertex="1" parent="1">
          <mxGeometry x="140" y="120" width="910" height="1370" as="geometry" />
        </mxCell>
        <mxCell id="Wd5RXZwqYcntnL7yTHbW-5" value="Planification des projets" style="ellipse;whiteSpace=wrap;html=1;" vertex="1" parent="1">
          <mxGeometry x="170" y="140" width="180" height="80" as="geometry" />
        </mxCell>
        <mxCell id="Wd5RXZwqYcntnL7yTHbW-6" value="gestion des periodes d&#39;inactivité" style="ellipse;whiteSpace=wrap;html=1;" vertex="1" parent="1">
          <mxGeometry x="234" y="350" width="180" height="80" as="geometry" />
        </mxCell>
        <mxCell id="Wd5RXZwqYcntnL7yTHbW-7" value="S&#39;identifier" style="ellipse;whiteSpace=wrap;html=1;" vertex="1" parent="1">
          <mxGeometry x="840" y="515" width="180" height="80" as="geometry" />
        </mxCell>
        <mxCell id="Wd5RXZwqYcntnL7yTHbW-8" value="&amp;lt;&amp;lt;extends&amp;gt;&amp;gt;" style="endArrow=none;endSize=16;endFill=0;html=1;rounded=0;edgeStyle=orthogonalEdgeStyle;startArrow=open;startFill=0;dashed=1;labelBackgroundColor=none;fontSize=15;" edge="1" parent="1" source="Wd5RXZwqYcntnL7yTHbW-37">
          <mxGeometry width="160" relative="1" as="geometry">
            <mxPoint x="420" y="220" as="sourcePoint" />
            <mxPoint x="580" y="220" as="targetPoint" />
          </mxGeometry>
        </mxCell>
        <mxCell id="Wd5RXZwqYcntnL7yTHbW-9" value="&amp;lt;&amp;lt;include&amp;gt;&amp;gt;" style="endArrow=open;endSize=12;dashed=1;rounded=0;entryX=0.056;entryY=0.25;entryDx=0;entryDy=0;entryPerimeter=0;html=1;startArrow=none;startFill=0;endFill=0;labelBackgroundColor=none;fontSize=15;" edge="1" parent="1" target="Wd5RXZwqYcntnL7yTHbW-7" source="Wd5RXZwqYcntnL7yTHbW-37">
          <mxGeometry width="160" relative="1" as="geometry">
            <mxPoint x="390" y="250" as="sourcePoint" />
            <mxPoint x="550" y="250" as="targetPoint" />
            <Array as="points" />
          </mxGeometry>
        </mxCell>
        <mxCell id="Wd5RXZwqYcntnL7yTHbW-15" value="&amp;lt;&amp;lt;include&amp;gt;&amp;gt;" style="endArrow=open;endSize=12;dashed=1;rounded=0;entryX=0;entryY=0.5;entryDx=0;entryDy=0;html=1;startArrow=none;startFill=0;endFill=0;labelBackgroundColor=none;fontSize=15;" edge="1" parent="1" target="Wd5RXZwqYcntnL7yTHbW-7">
          <mxGeometry width="160" relative="1" as="geometry">
            <mxPoint x="410" y="390" as="sourcePoint" />
            <mxPoint x="570.0799999999999" y="540" as="targetPoint" />
            <Array as="points" />
          </mxGeometry>
        </mxCell>
        <mxCell id="Wd5RXZwqYcntnL7yTHbW-18" value="&amp;lt;&amp;lt;include&amp;gt;&amp;gt;" style="endArrow=open;endSize=12;dashed=1;rounded=0;entryX=0.044;entryY=0.772;entryDx=0;entryDy=0;html=1;startArrow=none;startFill=0;endFill=0;labelBackgroundColor=none;fontSize=15;entryPerimeter=0;" edge="1" parent="1" target="Wd5RXZwqYcntnL7yTHbW-38" source="Wd5RXZwqYcntnL7yTHbW-41">
          <mxGeometry width="160" relative="1" as="geometry">
            <mxPoint x="700" y="630" as="sourcePoint" />
            <mxPoint x="970.0799999999999" y="735" as="targetPoint" />
            <Array as="points" />
          </mxGeometry>
        </mxCell>
        <mxCell id="Wd5RXZwqYcntnL7yTHbW-19" value="Extends" style="endArrow=none;endSize=16;endFill=0;html=1;rounded=0;exitX=0.5;exitY=1;exitDx=0;exitDy=0;entryX=0.5;entryY=0;entryDx=0;entryDy=0;startArrow=open;startFill=0;dashed=1;labelBackgroundColor=none;fontSize=15;" edge="1" parent="1" target="Wd5RXZwqYcntnL7yTHbW-43">
          <mxGeometry width="160" relative="1" as="geometry">
            <mxPoint x="340" y="610" as="sourcePoint" />
            <mxPoint x="290" y="730" as="targetPoint" />
          </mxGeometry>
        </mxCell>
        <mxCell id="Wd5RXZwqYcntnL7yTHbW-20" value="Extends" style="endArrow=none;endSize=16;endFill=0;html=1;rounded=0;exitX=0.667;exitY=0.963;exitDx=0;exitDy=0;exitPerimeter=0;startArrow=open;startFill=0;dashed=1;labelBackgroundColor=none;fontSize=15;" edge="1" parent="1" target="Wd5RXZwqYcntnL7yTHbW-45">
          <mxGeometry width="160" relative="1" as="geometry">
            <mxPoint x="360.03999999999996" y="607.04" as="sourcePoint" />
            <mxPoint x="510" y="680" as="targetPoint" />
          </mxGeometry>
        </mxCell>
        <mxCell id="Wd5RXZwqYcntnL7yTHbW-21" value="Extends" style="endArrow=none;endSize=16;endFill=0;html=1;rounded=0;edgeStyle=orthogonalEdgeStyle;startArrow=open;startFill=0;dashed=1;labelBackgroundColor=none;fontSize=15;" edge="1" parent="1">
          <mxGeometry width="160" relative="1" as="geometry">
            <mxPoint x="380" y="540" as="sourcePoint" />
            <mxPoint x="500" y="540" as="targetPoint" />
          </mxGeometry>
        </mxCell>
        <mxCell id="Wd5RXZwqYcntnL7yTHbW-22" value="Extends" style="endArrow=none;endSize=16;endFill=0;html=1;rounded=0;startArrow=open;startFill=0;dashed=1;labelBackgroundColor=none;fontSize=15;" edge="1" parent="1" target="Wd5RXZwqYcntnL7yTHbW-44">
          <mxGeometry width="160" relative="1" as="geometry">
            <mxPoint x="350" y="610" as="sourcePoint" />
            <mxPoint x="410" y="750" as="targetPoint" />
          </mxGeometry>
        </mxCell>
        <mxCell id="Wd5RXZwqYcntnL7yTHbW-29" value="&lt;font style=&quot;font-size: 17px&quot;&gt;&lt;b&gt;Gérer les fonctionnalités du système&lt;/b&gt;&lt;/font&gt;" style="ellipse;whiteSpace=wrap;html=1;fillColor=none;" vertex="1" parent="1">
          <mxGeometry x="400" y="1160" width="350" height="80" as="geometry" />
        </mxCell>
        <mxCell id="Wd5RXZwqYcntnL7yTHbW-30" value="&lt;font style=&quot;font-size: 17px&quot;&gt;&lt;b&gt;Gérer les utilisateurs et les droits d&#39;accès&lt;/b&gt;&lt;/font&gt;" style="ellipse;whiteSpace=wrap;html=1;fillColor=none;" vertex="1" parent="1">
          <mxGeometry x="400" y="1280" width="350" height="80" as="geometry" />
        </mxCell>
        <mxCell id="Wd5RXZwqYcntnL7yTHbW-31" value="&lt;b&gt;&lt;font style=&quot;font-size: 17px&quot;&gt;Gérer les&amp;nbsp;sociétés&lt;/font&gt;&lt;/b&gt;" style="ellipse;whiteSpace=wrap;html=1;fillColor=none;" vertex="1" parent="1">
          <mxGeometry x="410" y="1380" width="350" height="80" as="geometry" />
        </mxCell>
        <mxCell id="Wd5RXZwqYcntnL7yTHbW-35" value="&amp;lt;&amp;lt;include&amp;gt;&amp;gt;" style="endArrow=open;endSize=12;dashed=1;rounded=0;entryX=1.006;entryY=0.719;entryDx=0;entryDy=0;html=1;startArrow=none;startFill=0;endFill=0;exitX=0.997;exitY=0.388;exitDx=0;exitDy=0;exitPerimeter=0;entryPerimeter=0;" edge="1" parent="1" source="Wd5RXZwqYcntnL7yTHbW-31" target="Wd5RXZwqYcntnL7yTHbW-38">
          <mxGeometry width="160" relative="1" as="geometry">
            <mxPoint x="590.0999999999999" y="1509.04" as="sourcePoint" />
            <mxPoint x="930" y="1680" as="targetPoint" />
            <Array as="points">
              <mxPoint x="1021" y="1411" />
            </Array>
          </mxGeometry>
        </mxCell>
        <mxCell id="Wd5RXZwqYcntnL7yTHbW-36" value="Planification des projets" style="ellipse;whiteSpace=wrap;html=1;" vertex="1" parent="1">
          <mxGeometry x="170" y="140" width="180" height="80" as="geometry" />
        </mxCell>
        <mxCell id="Wd5RXZwqYcntnL7yTHbW-37" value="&lt;font style=&quot;font-size: 18px&quot;&gt;&lt;b&gt;Planifier des projets&lt;/b&gt;&lt;/font&gt;" style="ellipse;whiteSpace=wrap;html=1;labelBackgroundColor=none;" vertex="1" parent="1">
          <mxGeometry x="170" y="140" width="180" height="80" as="geometry" />
        </mxCell>
        <mxCell id="Wd5RXZwqYcntnL7yTHbW-38" value="&lt;font style=&quot;font-size: 17px&quot;&gt;S&#39;identifier&lt;/font&gt;" style="ellipse;whiteSpace=wrap;html=1;fontStyle=1;" vertex="1" parent="1">
          <mxGeometry x="840" y="515" width="180" height="80" as="geometry" />
        </mxCell>
        <mxCell id="Wd5RXZwqYcntnL7yTHbW-39" value="&lt;font style=&quot;font-size: 17px&quot;&gt;Organiser&amp;nbsp;des periodes d&#39;inactivité&lt;/font&gt;" style="ellipse;whiteSpace=wrap;html=1;fontStyle=1;" vertex="1" parent="1">
          <mxGeometry x="234" y="350" width="186" height="80" as="geometry" />
        </mxCell>
        <mxCell id="Wd5RXZwqYcntnL7yTHbW-40" value="&lt;font style=&quot;font-size: 17px&quot;&gt;Affecter&amp;nbsp; l&#39;ID du projet à partir de Tuleap&lt;/font&gt;" style="ellipse;whiteSpace=wrap;html=1;fontStyle=1;" vertex="1" parent="1">
          <mxGeometry x="580" y="170" width="200" height="100" as="geometry" />
        </mxCell>
        <mxCell id="Wd5RXZwqYcntnL7yTHbW-41" value="&lt;font style=&quot;font-size: 17px&quot;&gt;Affecter l&#39;ID d&#39;employé à partir de Tuleap&lt;/font&gt;" style="ellipse;whiteSpace=wrap;html=1;fontStyle=1;" vertex="1" parent="1">
          <mxGeometry x="500" y="500" width="170" height="110" as="geometry" />
        </mxCell>
        <mxCell id="Wd5RXZwqYcntnL7yTHbW-42" value="&lt;font style=&quot;font-size: 17px&quot;&gt;Manager les employés&lt;/font&gt;" style="ellipse;whiteSpace=wrap;html=1;fontStyle=1;" vertex="1" parent="1">
          <mxGeometry x="280" y="520" width="120" height="80" as="geometry" />
        </mxCell>
        <mxCell id="Wd5RXZwqYcntnL7yTHbW-43" value="&lt;font style=&quot;font-size: 17px&quot;&gt;Contrôler les Compétances&lt;/font&gt;" style="ellipse;whiteSpace=wrap;html=1;fontStyle=1;" vertex="1" parent="1">
          <mxGeometry x="435" y="1000" width="120" height="105" as="geometry" />
        </mxCell>
        <mxCell id="Wd5RXZwqYcntnL7yTHbW-44" value="&lt;font style=&quot;font-size: 17px&quot;&gt;Organiser les Congés&lt;/font&gt;" style="ellipse;whiteSpace=wrap;html=1;fontStyle=1;" vertex="1" parent="1">
          <mxGeometry x="572" y="880" width="146" height="100" as="geometry" />
        </mxCell>
        <mxCell id="Wd5RXZwqYcntnL7yTHbW-45" value="&lt;font style=&quot;font-size: 17px&quot;&gt;Contrôler les Profils&lt;/font&gt;" style="ellipse;whiteSpace=wrap;html=1;fontStyle=1;" vertex="1" parent="1">
          <mxGeometry x="570" y="755" width="150" height="110" as="geometry" />
        </mxCell>
        <mxCell id="Wd5RXZwqYcntnL7yTHbW-53" style="edgeStyle=none;rounded=0;orthogonalLoop=1;jettySize=auto;html=1;entryX=0;entryY=0.5;entryDx=0;entryDy=0;endArrow=none;endFill=0;exitX=1;exitY=0.3333333333333333;exitDx=0;exitDy=0;exitPerimeter=0;" edge="1" parent="1" source="Wd5RXZwqYcntnL7yTHbW-3" target="Wd5RXZwqYcntnL7yTHbW-42">
          <mxGeometry relative="1" as="geometry">
            <mxPoint x="80" y="270" as="sourcePoint" />
            <mxPoint x="183" y="489" as="targetPoint" />
          </mxGeometry>
        </mxCell>
        <mxCell id="Wd5RXZwqYcntnL7yTHbW-55" value="&amp;lt;&amp;lt;include&amp;gt;&amp;gt;" style="endArrow=open;endSize=12;dashed=1;rounded=0;entryX=0;entryY=1;entryDx=0;entryDy=0;html=1;startArrow=none;startFill=0;endFill=0;labelBackgroundColor=none;fontSize=15;exitX=1;exitY=0;exitDx=0;exitDy=0;" edge="1" parent="1" source="Wd5RXZwqYcntnL7yTHbW-45" target="Wd5RXZwqYcntnL7yTHbW-38">
          <mxGeometry width="160" relative="1" as="geometry">
            <mxPoint x="720.0024654666524" y="745.2212869494681" as="sourcePoint" />
            <mxPoint x="898.6100000000001" y="760" as="targetPoint" />
            <Array as="points" />
          </mxGeometry>
        </mxCell>
        <mxCell id="Wd5RXZwqYcntnL7yTHbW-56" value="&amp;lt;&amp;lt;include&amp;gt;&amp;gt;" style="endArrow=open;endSize=12;dashed=1;rounded=0;html=1;startArrow=none;startFill=0;endFill=0;labelBackgroundColor=none;fontSize=15;exitX=1;exitY=0;exitDx=0;exitDy=0;" edge="1" parent="1">
          <mxGeometry width="160" relative="1" as="geometry">
            <mxPoint x="720.003008588991" y="917.8291270347399" as="sourcePoint" />
            <mxPoint x="888" y="590" as="targetPoint" />
            <Array as="points" />
          </mxGeometry>
        </mxCell>
        <mxCell id="Wd5RXZwqYcntnL7yTHbW-57" value="&amp;lt;&amp;lt;include&amp;gt;&amp;gt;" style="endArrow=open;endSize=12;dashed=1;rounded=0;html=1;startArrow=none;startFill=0;endFill=0;labelBackgroundColor=none;fontSize=15;exitX=1.029;exitY=0.63;exitDx=0;exitDy=0;exitPerimeter=0;" edge="1" parent="1" source="Wd5RXZwqYcntnL7yTHbW-43">
          <mxGeometry width="160" relative="1" as="geometry">
            <mxPoint x="740" y="930" as="sourcePoint" />
            <mxPoint x="898" y="600" as="targetPoint" />
            <Array as="points">
              <mxPoint x="880" y="1066" />
            </Array>
          </mxGeometry>
        </mxCell>
        <mxCell id="Wd5RXZwqYcntnL7yTHbW-59" style="edgeStyle=none;rounded=0;orthogonalLoop=1;jettySize=auto;html=1;endArrow=none;endFill=0;exitX=1;exitY=0.3333333333333333;exitDx=0;exitDy=0;exitPerimeter=0;" edge="1" parent="1" source="Wd5RXZwqYcntnL7yTHbW-3" target="Wd5RXZwqYcntnL7yTHbW-43">
          <mxGeometry relative="1" as="geometry">
            <mxPoint x="90" y="790.0000000000002" as="sourcePoint" />
            <mxPoint x="290" y="570" as="targetPoint" />
            <Array as="points">
              <mxPoint x="290" y="910" />
            </Array>
          </mxGeometry>
        </mxCell>
        <mxCell id="Wd5RXZwqYcntnL7yTHbW-60" style="edgeStyle=none;rounded=0;orthogonalLoop=1;jettySize=auto;html=1;endArrow=none;endFill=0;entryX=0;entryY=0;entryDx=0;entryDy=0;" edge="1" parent="1" target="Wd5RXZwqYcntnL7yTHbW-29">
          <mxGeometry relative="1" as="geometry">
            <mxPoint x="80" y="780" as="sourcePoint" />
            <mxPoint x="443.9540341601467" y="1069.9609179155486" as="targetPoint" />
            <Array as="points" />
          </mxGeometry>
        </mxCell>
        <mxCell id="Wd5RXZwqYcntnL7yTHbW-61" style="edgeStyle=none;rounded=0;orthogonalLoop=1;jettySize=auto;html=1;endArrow=none;endFill=0;entryX=0.063;entryY=0.244;entryDx=0;entryDy=0;entryPerimeter=0;" edge="1" parent="1" target="Wd5RXZwqYcntnL7yTHbW-30">
          <mxGeometry relative="1" as="geometry">
            <mxPoint x="90" y="790.0000000000002" as="sourcePoint" />
            <mxPoint x="461.2563132923542" y="1181.7157287525379" as="targetPoint" />
            <Array as="points" />
          </mxGeometry>
        </mxCell>
        <mxCell id="Wd5RXZwqYcntnL7yTHbW-62" style="edgeStyle=none;rounded=0;orthogonalLoop=1;jettySize=auto;html=1;endArrow=none;endFill=0;entryX=0;entryY=0.5;entryDx=0;entryDy=0;" edge="1" parent="1" target="Wd5RXZwqYcntnL7yTHbW-31">
          <mxGeometry relative="1" as="geometry">
            <mxPoint x="100" y="800.0000000000002" as="sourcePoint" />
            <mxPoint x="432.04999999999995" y="1309.52" as="targetPoint" />
            <Array as="points" />
          </mxGeometry>
        </mxCell>
        <mxCell id="Wd5RXZwqYcntnL7yTHbW-63" value="&amp;lt;&amp;lt;include&amp;gt;&amp;gt;" style="endArrow=open;endSize=12;dashed=1;rounded=0;entryX=0.769;entryY=0.952;entryDx=0;entryDy=0;html=1;startArrow=none;startFill=0;endFill=0;exitX=1;exitY=0.5;exitDx=0;exitDy=0;entryPerimeter=0;" edge="1" parent="1" source="Wd5RXZwqYcntnL7yTHbW-30" target="Wd5RXZwqYcntnL7yTHbW-38">
          <mxGeometry width="160" relative="1" as="geometry">
            <mxPoint x="768.95" y="1421.04" as="sourcePoint" />
            <mxPoint x="1031.0800000000002" y="582.52" as="targetPoint" />
            <Array as="points">
              <mxPoint x="980" y="1320" />
            </Array>
          </mxGeometry>
        </mxCell>
        <mxCell id="Wd5RXZwqYcntnL7yTHbW-64" value="&amp;lt;&amp;lt;include&amp;gt;&amp;gt;" style="endArrow=open;endSize=12;dashed=1;rounded=0;html=1;startArrow=none;startFill=0;endFill=0;exitX=1;exitY=0.5;exitDx=0;exitDy=0;" edge="1" parent="1" source="Wd5RXZwqYcntnL7yTHbW-29">
          <mxGeometry width="160" relative="1" as="geometry">
            <mxPoint x="759.9999999999991" y="1330" as="sourcePoint" />
            <mxPoint x="940" y="590" as="targetPoint" />
            <Array as="points">
              <mxPoint x="940" y="1200" />
            </Array>
          </mxGeometry>
        </mxCell>
      </root>
    </mxGraphModel>
  </diagram>
</mxfile>
